<svg width="27" height="26" viewBox="0 0 27 26" fill="none" xmlns="http://www.w3.org/2000/svg">
<path d="M4.85571 0.490234C5.58347 0.490432 6.17407 1.08078 6.17407 1.80859V16.1602H21.3762L23.9182 6.34863H8.88306C8.23607 6.34856 7.71118 5.82376 7.71118 5.17676C7.71124 4.5298 8.23611 4.00496 8.88306 4.00488H25.2424C26.1043 4.00511 26.7349 4.81989 26.5188 5.6543L23.4456 17.5166C23.2948 18.0976 22.7703 18.5036 22.1702 18.5039H5.14868C4.4208 18.5039 3.83032 17.9135 3.83032 17.1855V2.83398H1.56079C0.913743 2.83398 0.388916 2.30916 0.388916 1.66211C0.388916 1.01506 0.913743 0.490234 1.56079 0.490234H4.85571Z" fill="#333333"/>
<circle cx="6.39318" cy="23.4828" r="2.48962" fill="#333333"/>
<circle cx="20.9647" cy="23.4828" r="2.48962" fill="#333333"/>
</svg>
